# xmcd
# 
# Track frame offsets:
#     150
#     20900
#     45145
#     78327
#     100777
#     117440
#     136200
#     152842
#     174205
# 
# Disc length: 2658
# 
# Revision: 3
# Processed by: cddbd v1.5.2PL0 Copyright (c) Steve Scherf et al.
# Submitted via: BonkEnc v1.0.8
# 
DISCID=640a6009
DTITLE=Stevie Wonder - Innervisions
DYEAR=1973
DGENRE=R&B
TTITLE0=Too High
TTITLE1=Visions
TTITLE2=Living For The City
TTITLE3=Golden Lady
TTITLE4=Higher Ground
TTITLE5=Jesus Children Of America
TTITLE6=All In Love Is Fair
TTITLE7=Don't You Worry 'Bout A Thing
TTITLE8=He's Misstra Know-It-All
EXTD=YEAR: 1973
EXTT0=
EXTT1=
EXTT2=
EXTT3=
EXTT4=
EXTT5=
EXTT6=
EXTT7=
EXTT8=
PLAYORDER=
